<svg width="171" height="102" viewBox="0 0 171 102" fill="none" xmlns="http://www.w3.org/2000/svg">
<g filter="url(#filter0_d)">
<path d="M139.562 59.184C139.562 55.4219 137.931 52.8638 136.893 50.3056C135.855 54.3686 134.669 58.5822 133.483 61.8928C133.483 61.8928 132 61.5918 132 61.1404C133.483 57.0773 134.669 51.9609 135.558 47.2959C134.965 45.3396 134.521 43.3833 134.521 40.9756C134.521 38.4174 134.965 35.5582 135.855 33L139.858 34.0534C139.858 37.8155 139.117 43.5338 137.931 46.8445C139.858 50.0046 143.565 53.3152 143.565 58.5821C143.565 64.451 139.265 72.2761 139.265 78.5964C139.265 87.9264 144.455 91.5379 151.127 91.5379C158.837 91.5379 162.988 85.0671 162.988 78.7468C162.988 74.9848 161.506 71.5237 158.688 69.2664L161.357 65.8053C165.064 68.514 166.843 73.0285 166.843 77.543C166.843 85.5186 161.209 93.9457 150.978 93.9457C142.231 93.9457 135.262 88.8293 135.262 78.5964C135.262 71.8247 139.562 64.3005 139.562 59.184Z" fill="#4F4F4F"/>
<path d="M97.3507 67.6066C97.7955 67.6066 98.8334 68.2085 98.8334 68.359C96.3128 75.7327 91.5683 87.3198 84.4513 87.3198C78.3723 87.3198 76 81.451 76 74.3783C76 63.5435 81.4859 50 89.0476 50C92.013 50 93.4957 52.1067 93.4957 54.9659C93.4957 61.2862 86.3788 68.359 80.4481 69.5628C80.1515 71.2181 80.0033 72.7229 80.0033 74.2278C80.0033 79.4947 81.4859 83.7082 85.3409 83.7082C90.3821 83.5577 94.5336 74.9802 97.3507 67.6066ZM80.5963 67.456C87.1202 64.2959 90.0855 58.728 90.0855 55.1164C90.0855 53.1601 89.4925 52.2572 88.4546 52.2572C85.1927 52.1068 81.9308 59.9319 80.5963 67.456Z" fill="#4F4F4F"/>
<path d="M125.351 67.6066C125.796 67.6066 126.833 68.2085 126.833 68.359C124.313 75.7327 119.568 87.3198 112.451 87.3198C106.372 87.3198 104 81.451 104 74.3783C104 63.5435 109.486 50 117.048 50C120.013 50 121.496 52.1067 121.496 54.9659C121.496 61.2862 114.379 68.359 108.448 69.5628C108.152 71.2181 108.003 72.7229 108.003 74.2278C108.003 79.4947 109.486 83.7082 113.341 83.7082C118.382 83.5577 122.534 74.9802 125.351 67.6066ZM108.596 67.456C115.12 64.2959 118.086 58.728 118.086 55.1164C118.086 53.1601 117.492 52.2572 116.455 52.2572C113.193 52.1068 109.931 59.9319 108.596 67.456Z" fill="#4F4F4F"/>
<path d="M27.13 51.7662C25.6473 52.3681 24.0163 52.5186 22.2371 52.5186C10.2273 52.5186 4 42.7372 4 31.7519C4 17.0046 14.8236 0 37.3605 0C52.0392 0 64.3455 6.92221 64.3455 21.5191C64.3455 29.6452 60.4905 37.0189 51.4461 40.179C62.8628 43.7906 67.9039 53.1206 67.9039 62.7515C67.9039 75.6931 58.4147 89.0861 41.3638 89.0861C33.0607 89.0861 27.13 87.8822 22.9784 86.9793C20.7544 88.1832 18.2338 88.9356 15.8615 88.9356C14.2306 88.9356 12.7479 88.6346 11.2652 88.1831L12.0065 84.4211C13.6375 84.1201 15.1202 84.1201 16.6029 84.1201C18.3821 84.1201 19.8648 84.2706 21.4958 84.4211C28.7609 79.7561 34.3951 64.1059 37.2123 42.8877C39.288 27.9899 41.2155 17.456 43.4396 11.1357L47.7394 12.1891C45.6636 18.058 43.7361 25.7326 42.1051 38.5237C43.8844 38.6742 45.3671 38.8246 46.8497 38.9751C54.8563 36.4169 59.8974 29.0433 59.8974 21.8201C59.8974 8.27658 48.3324 1.80582 37.5088 1.80582C17.4925 1.80582 7.85498 17.6065 7.85498 30.8491C7.85498 40.3295 12.7479 48.4556 22.6819 48.4556C23.868 48.4556 24.9059 48.3051 25.9438 48.0041L27.13 51.7662ZM63.4559 62.4505C63.4559 53.1206 58.7113 43.7906 48.3324 40.9315C46.4049 41.3829 44.3292 41.6839 41.9569 41.6839C39.1398 65.3097 33.0607 79.0037 25.7955 85.023C30.2436 85.7754 35.1365 86.8288 42.2534 86.8288C55.7459 86.8288 63.4559 74.3387 63.4559 62.4505Z" fill="#4F4F4F"/>
</g>
<defs>
<filter id="filter0_d" x="0" y="0" width="170.843" height="101.946" filterUnits="userSpaceOnUse" color-interpolation-filters="sRGB">
<feFlood flood-opacity="0" result="BackgroundImageFix"/>
<feColorMatrix in="SourceAlpha" type="matrix" values="0 0 0 0 0 0 0 0 0 0 0 0 0 0 0 0 0 0 127 0"/>
<feOffset dy="4"/>
<feGaussianBlur stdDeviation="2"/>
<feColorMatrix type="matrix" values="0 0 0 0 0 0 0 0 0 0 0 0 0 0 0 0 0 0 0.25 0"/>
<feBlend mode="normal" in2="BackgroundImageFix" result="effect1_dropShadow"/>
<feBlend mode="normal" in="SourceGraphic" in2="effect1_dropShadow" result="shape"/>
</filter>
</defs>
</svg>
