<svg width="292" height="357" viewBox="0 0 292 357" fill="none" xmlns="http://www.w3.org/2000/svg">
<path d="M144.663 290.879C97.7386 290.753 56.2848 284.948 13.98 272.708L13.6153 272.582L13.4938 272.203C4.49792 240.152 0 206.713 0 172.643C0 144.882 3.76852 115.228 11.0624 86.9622L11.184 86.4575H11.6703C12.8859 86.4575 14.1016 86.2051 15.1957 85.9527C58.1082 72.0723 102.723 65.0059 147.945 65.0059C192.803 65.0059 237.296 71.9461 279.965 85.7004L280.33 85.8265L280.451 86.2051C285.679 108.035 292 140.717 292 172.643C292 209.489 288.596 242.802 281.91 271.698L281.789 272.329L281.181 272.203C279.479 271.825 277.655 271.951 275.832 272.582C233.406 284.822 191.709 290.626 144.663 290.879ZM14.5878 271.572C56.5279 283.686 97.8601 289.365 144.541 289.491C191.465 289.365 233.041 283.56 275.346 271.32C277.169 270.815 278.993 270.689 280.694 270.815C287.259 242.171 290.663 209.11 290.663 172.643C290.663 140.97 284.463 108.54 279.236 86.836C236.809 73.208 192.681 66.2677 147.945 66.2677C102.844 66.2677 58.3514 73.3341 15.5604 87.2146C14.4663 87.5932 13.2506 87.7193 12.1565 87.8455C4.98418 115.985 1.21565 145.26 1.21565 172.769C1.21565 206.46 5.71357 239.773 14.5878 271.572Z" fill="#4F4F4F"/>
<path d="M147.702 325.327C104.303 325.201 66.0101 320.532 27.1091 310.564L26.866 310.437L26.7444 310.185C24.5563 304.885 22.3681 299.333 20.423 293.781L20.0583 292.645L21.1524 292.898C60.9043 303.119 101.264 308.04 144.663 308.166C190.736 308.04 233.649 302.362 275.71 290.879L276.804 290.626L276.44 291.762C274.495 298.071 272.307 304.128 270.118 309.807L269.997 310.059L269.754 310.185C230.366 320.28 191.587 325.075 147.702 325.327ZM27.717 309.428C66.4963 319.27 104.668 323.813 147.824 324.066C191.466 323.939 230.002 319.144 269.267 309.176C271.334 303.876 273.279 298.324 275.103 292.645C233.162 304.002 190.493 309.554 144.784 309.68C101.629 309.554 61.5121 304.633 22.0034 294.664C23.7053 299.585 25.6504 304.633 27.717 309.428Z" fill="#4F4F4F"/>
<path d="M264.283 33.7118L263.068 33.3332C224.896 21.0932 185.266 14.7839 145.149 14.7839C106.734 14.7839 68.5629 20.5884 31.8502 31.819L30.5129 32.1975L31.1208 30.9357C33.9168 25.3835 36.5912 20.5884 39.2656 16.6767C44.7361 8.60076 104.182 -0.484622 138.22 0.0201216C177.121 0.524865 243.982 7.4651 255.774 16.5505C257.962 18.1909 262.095 28.2858 263.675 32.4499L264.283 33.7118ZM145.271 13.522C185.023 13.522 224.288 19.5789 262.217 31.6928C258.57 22.4812 256.138 18.3171 255.166 17.56C243.496 8.60078 176.999 1.78672 138.22 1.28198C137.369 1.28198 136.518 1.28198 135.667 1.28198C99.3189 1.28198 44.9792 10.4936 40.2382 17.4338C37.8069 20.967 35.3756 25.2573 32.8227 30.3047C69.4139 19.2004 107.221 13.522 145.271 13.522Z" fill="#4F4F4F"/>
<path d="M141.988 357C105.033 357 47.7753 350.943 46.1949 348.293C43.0342 343.246 39.8735 337.694 36.8344 331.889L36.2266 330.753L37.5638 331.006C72.9393 338.703 109.044 342.489 147.702 342.615C186.968 342.489 223.437 338.577 259.299 330.753L260.636 330.501L260.028 331.763C257.354 336.81 254.558 341.479 251.64 345.896L251.519 346.148H251.276C250.425 346.274 179.674 357 141.988 357ZM38.5363 332.646C41.3323 337.946 44.2499 342.993 47.1674 347.662C49.4772 349.555 103.209 355.738 141.988 355.738C178.458 355.738 245.805 345.643 250.668 344.886C253.221 340.974 255.774 336.81 258.205 332.268C222.708 339.965 186.481 343.751 147.702 343.877C109.409 343.877 73.6687 340.217 38.5363 332.646Z" fill="#4F4F4F"/>
<path d="M16.7761 67.2774L17.1408 66.1417C18.5996 61.7252 20.0584 57.4349 21.6387 53.3969L21.7603 53.0183H22.125C23.0975 53.0183 24.07 52.766 25.0426 52.5136C63.8219 39.1379 104.303 32.3239 145.149 32.3239C185.995 32.3239 226.476 39.1379 265.256 52.5136C266.836 53.0184 268.66 53.1445 270.361 52.766L270.848 52.6398L270.969 53.1445C272.185 56.9301 273.401 60.9681 274.495 64.8798L274.859 66.0155L273.765 65.7631C232.919 53.7755 190.493 47.7185 147.824 47.7185C103.695 47.7185 59.9318 54.154 17.7486 66.8988L16.7761 67.2774ZM22.6113 54.154C21.274 57.8134 19.9368 61.4728 18.7212 65.3846C60.6612 52.766 104.182 46.4567 148.067 46.4567C190.493 46.4567 232.555 52.3874 273.279 64.2489C272.307 60.8419 271.212 57.4349 270.24 54.154C268.538 54.4064 266.714 54.2802 265.134 53.6493C226.476 40.2736 186.117 33.5857 145.392 33.5857C104.668 33.5857 64.3082 40.3997 25.6504 53.6493C24.5563 53.9016 23.5838 54.154 22.6113 54.154Z" fill="#4F4F4F"/>
<path d="M25.2857 53.0183C103.209 26.2669 187.332 26.2669 265.134 53.0183C266.958 53.6493 268.781 53.7754 270.483 53.3969C267.93 45.4472 265.499 38.3808 263.189 32.8286C187.819 8.60088 107.221 8.09615 31.6071 31.4405C28.4464 37.876 25.1641 45.321 22.125 53.6493C23.2191 53.5231 24.1916 53.3969 25.2857 53.0183Z" fill="#4F4F4F"/>
<path d="M279.722 86.4575C277.898 78.8863 275.953 71.8199 274.008 65.1321C190.371 40.652 101.142 41.0306 17.6269 66.3939C15.4387 72.9556 13.4936 80.022 11.5486 87.3408C12.7642 87.3408 14.1015 87.2146 15.3171 86.7098C101.264 58.8228 193.897 58.8228 279.722 86.4575Z" fill="#4F4F4F"/>
<path d="M275.832 291.636C277.777 285.2 279.6 278.513 281.181 271.699C279.479 271.32 277.534 271.446 275.467 272.077C229.394 285.453 186.967 290.122 144.541 290.248C102.236 290.122 59.9317 285.327 14.1016 272.203C16.1682 279.522 18.4779 286.715 20.9092 293.655C63.7002 304.633 104.181 308.797 144.541 308.923C187.454 308.797 230.245 304.002 275.832 291.636Z" fill="#4F4F4F"/>
<path d="M147.702 324.697C108.436 324.57 69.1708 320.659 27.2307 310.059C30.3914 317.63 33.7952 324.949 37.4422 331.889C75.249 340.091 111.476 343.372 147.702 343.498C184.415 343.372 221.006 339.965 259.421 331.511C263.189 324.57 266.471 317.252 269.51 309.68C227.084 320.532 187.454 324.57 147.702 324.697Z" fill="#4F4F4F"/>
<path d="M258.57 252.771C243.739 252.771 231.704 236.24 231.704 216.05C231.704 195.734 243.739 179.33 258.57 179.33C273.401 179.33 285.436 195.861 285.436 216.05C285.436 236.24 273.401 252.771 258.57 252.771ZM258.57 180.466C244.346 180.466 232.919 196.365 232.919 215.924C232.919 235.483 244.468 251.382 258.57 251.382C272.793 251.382 284.22 235.483 284.22 215.924C284.22 196.365 272.671 180.466 258.57 180.466Z" fill="#4F4F4F"/>
</svg>
