<svg width="393" height="343" viewBox="0 0 393 343" fill="none" xmlns="http://www.w3.org/2000/svg">
<path d="M387.511 180.664C391.48 175.437 393.514 169.424 392.889 162.993C392.212 156.028 389.997 149.109 388.365 142.296C387.229 137.554 386.126 132.789 385.198 127.999C385.251 126.856 385.217 125.709 385.054 124.561C383.967 116.902 378.654 109.449 372.965 104.042C367.866 99.1956 359.403 96.1896 356.614 89.5729C353.326 81.7758 354.673 73.0224 352.002 65.104C349.969 59.0775 346.045 53.8211 340.812 49.8367C335.297 45.6379 328.723 42.8332 321.9 41.0413C314.311 39.0474 304.216 38.9846 297.798 34.308C295.056 32.3107 293.641 29.0971 291.865 26.3986C291.074 25.1982 290.208 24.0331 289.305 22.892C284.439 12.6639 273.523 7.1648 261.763 3.9864C254.927 2.13866 247.677 0.732166 240.543 0.557044C232.828 0.367443 225.712 2.04972 218.489 4.40353C210.924 6.86902 203.174 9.11252 195.123 9.54619C187.424 9.96055 180.981 7.90252 173.877 5.44943C161.296 1.10447 147.906 0.324007 134.929 3.69959C129.319 5.15848 123.98 7.43231 119.057 10.3273C115.064 12.1951 111.454 14.8274 108.302 17.8183C105.585 20.3969 103.165 23.3181 101.136 26.3993C99.3598 29.0978 97.9444 32.3114 95.2033 34.3087C88.784 38.9853 78.6895 39.0481 71.0997 41.042C64.2766 42.8346 57.7023 45.6393 52.188 49.8374C46.9546 53.8217 43.0315 59.0782 40.9982 65.1047C38.3262 73.0231 39.6741 81.7765 36.3865 89.5736C33.5971 96.1896 25.1345 99.1956 20.0347 104.043C14.3462 109.45 9.03296 116.902 7.94607 124.561C7.78334 125.711 7.7488 126.857 7.80176 128C6.87375 132.789 5.77151 137.555 4.63548 142.297C3.00283 149.11 0.789127 156.028 0.111351 162.994C-0.513461 169.426 1.51987 175.439 5.48903 180.665C8.54939 184.695 12.801 190.338 18.171 191.919C18.0782 192.865 18.0175 193.807 17.9876 194.743C17.6606 196.431 17.3774 198.13 17.0665 199.821C16.2045 204.511 15.3302 209.199 14.4644 213.887C12.844 222.662 11.1837 231.567 11.3027 240.501C11.3856 246.68 11.11 254.309 14.0023 260.004C17.1578 266.217 24.6947 269.334 30.8976 272.318C37.0989 275.301 43.7085 278.719 48.0553 283.98C52.3192 289.142 52.865 295.745 55.5615 301.582C58.4622 307.861 64.1615 312.554 71.1388 314.64C78.8661 316.95 86.951 315.418 94.7965 314.703C99.1011 314.311 104.187 313.784 108.358 315.175C111.703 316.289 114.22 318.63 117.615 319.708C121.407 320.913 124.188 322.961 127.328 325.302C138.346 333.514 149.454 340.191 163.715 341.978C171.556 342.961 179.164 342.491 186.647 340.022C193.54 337.747 200.376 334.54 207.845 334.525C214.988 334.511 221.772 337.065 228.723 338.258C236 339.507 242.718 339.162 249.563 336.441C257.07 333.458 263.977 329.37 270.158 324.401C274.995 320.513 280.264 316.671 286.387 314.805C290.266 314.121 294.296 314.347 298.205 314.703C306.051 315.418 314.136 316.95 321.863 314.64C328.84 312.554 334.539 307.861 337.44 301.582C340.137 295.745 340.682 289.142 344.946 283.98C349.292 278.719 355.902 275.301 362.104 272.318C368.307 269.335 375.844 266.218 378.999 260.004C381.892 254.309 381.616 246.68 381.699 240.501C381.818 231.567 380.158 222.662 378.537 213.887C377.671 209.199 376.797 204.511 375.935 199.821C375.624 198.13 375.341 196.432 375.014 194.743C374.984 193.807 374.923 192.865 374.831 191.919C380.199 190.337 384.451 184.694 387.511 180.664ZM10.8583 175.794C6.94591 170.338 6.74173 164.492 7.85933 158.19C8.88022 152.431 10.4062 146.483 11.5476 140.503C12.7788 143.005 14.1589 145.427 15.4523 147.73C17.5362 151.442 19.829 155.111 21.4264 159.038C23.1787 163.347 23.1941 167.408 22.253 171.904C21.4455 175.763 20.3272 179.911 19.4337 184.118C16.0395 181.869 13.2623 179.146 10.8583 175.794ZM61.0743 265.713C60.4802 270.722 60.0081 275.757 59.7364 280.791C59.6174 282.988 59.5292 285.186 59.4578 287.384C58.8084 285.632 58.0431 283.918 57.0053 282.295C53.9365 277.497 49.4224 273.875 44.5552 270.726C38.4252 266.76 31.2476 264.476 25.1783 260.449C19.4514 256.649 20.0915 250.729 19.6456 244.817C18.9041 234.99 20.0401 225.423 21.4947 215.697C21.7756 213.817 22.0673 211.938 22.3567 210.058C23.3983 211.394 24.6479 212.665 26.1608 213.849C32.3828 218.719 39.9358 221.381 46.8448 225.208C54.0893 229.221 57.4129 234.472 59.0364 242.129C60.0304 246.816 60.6721 251.688 62.2679 256.211C61.6477 259.341 61.4481 262.566 61.0743 265.713ZM129.44 300.335C128.81 305.354 127.967 310.42 127.54 315.483C118.41 309.43 108.149 305.62 96.8007 306.495C91.2971 306.919 85.7943 307.905 80.2516 307.702C78.4524 307.636 66.3913 306.204 66.8979 303.138C67.337 300.479 66.9286 297.488 66.9095 295.051C66.8711 290.058 66.9033 285.065 67.0553 280.074C67.1927 275.554 67.8996 270.556 68.0931 265.616C71.888 269.21 76.9379 271.019 82.3432 271.592C95.2248 272.953 110.272 266.198 121.535 274.398C125.37 277.189 128.536 280.613 131.72 284C129.882 289.034 130.086 295.191 129.44 300.335ZM196.899 307.807C196.774 311.441 196.606 315.078 196.57 318.713C196.542 321.581 196.201 325.178 196.942 328.061C187.629 330.546 178.706 334.671 168.646 334.144C155.71 333.466 145.432 327.865 135.491 321.051C135.648 320.689 135.762 320.293 135.816 319.859C136.624 313.369 137.28 306.839 137.991 300.336C138.311 297.419 138.813 294.192 138.89 291.012C140.977 292.759 143.238 294.331 145.814 295.588C145.875 295.618 145.937 295.644 145.998 295.673C146.57 296.058 147.127 296.42 147.657 296.751C152.536 299.799 158.805 300.705 164.578 300.689C171.3 300.669 177.517 298.789 183.514 296.103C188.092 294.053 192.686 291.398 197.673 290.229C196.536 295.929 197.088 302.301 196.899 307.807ZM254.524 324.769C248.017 328.375 241.313 331.27 233.59 330.495C226.55 329.787 219.85 327.307 212.816 326.484C210.365 326.197 207.984 326.205 205.653 326.419C205.866 324.523 205.553 322.524 205.498 320.604C205.384 316.568 205.693 312.528 205.668 308.491C205.634 302.773 206.155 295.919 204.856 289.943C208.967 290.75 212.67 293.114 216.421 294.877C221.375 297.204 226.527 298.596 232.087 298.873C237.277 299.133 242.815 298.376 247.43 296.053C249.255 295.135 251.963 293.346 253.833 291.249C254.377 290.64 254.94 290.017 255.514 289.386C255.481 289.942 255.452 290.494 255.42 291.04C255.193 294.926 255.208 298.845 255.204 302.737C255.201 306.338 255.471 309.93 255.627 313.526C255.768 316.808 255.159 320.53 256.424 323.637C255.801 324.028 255.171 324.41 254.524 324.769ZM250.16 282.597C247.968 284.638 245.657 286.494 242.93 287.886C241.61 288.559 240.199 289.048 238.849 289.655C235.453 290.308 231.987 290.357 228.519 289.717C218.519 287.877 210.975 280.027 200.204 281.008C188.686 282.057 180.014 290.221 168.793 292.051C165.909 292.521 162.487 293.09 159.632 292.314C156.472 291.455 152.978 289.371 150.069 287.885C147.342 286.493 145.031 284.637 142.839 282.596C138.277 278.349 134.426 273.458 129.612 269.443C124.692 265.342 119.132 262.52 112.518 261.831C106.831 261.238 101.119 262.04 95.4635 262.579C90.1703 263.083 84.2315 263.833 79.1033 262.094C72.7408 259.937 70.8257 253.682 69.6305 248.029C68.0194 240.409 67.3194 232.546 62.1696 226.119C57.9011 220.792 51.7543 217.562 45.5246 214.589C39.5797 211.752 30.4531 208.424 28.0836 202.021C25.8607 196.016 28.0652 188.222 29.4223 182.211C31.1186 174.697 33.6332 166.804 31.134 159.181C28.5749 151.377 23.2954 144.6 19.6379 137.254C17.9699 133.904 16.2398 130.129 16.609 126.349C16.9974 122.372 19.5074 118.464 21.8715 115.234C26.3419 109.127 32.914 105.889 38.5465 100.956C50.8662 90.1665 43.4813 73.079 52.4636 60.9666C62.578 47.3278 81.208 49.3072 95.5656 42.8215C102.845 39.5327 105.026 32.8112 109.246 26.9377C109.739 26.2517 110.261 25.5954 110.796 24.9549C113.18 23.2216 115.451 21.2994 117.936 19.7391C122.879 16.6352 128.232 14.2683 133.875 12.504C145.344 8.91809 157.56 8.88362 169.013 12.5336C175.268 14.5275 181.236 17.044 187.894 17.6494C195.042 18.2988 202.415 17.2336 209.343 15.6107C216.136 14.0194 222.555 11.3305 229.339 9.73648C236.115 8.14452 243.156 8.40376 249.979 9.59996C257.838 10.9775 265.772 12.9045 272.699 16.7476C272.965 16.8958 273.223 17.0516 273.48 17.2067C277.424 19.8805 280.95 23.0299 283.757 26.9371C287.977 32.8105 290.158 39.5321 297.438 42.8208C311.795 49.3065 330.426 47.3271 340.54 60.9659C349.522 73.0783 342.136 90.1658 354.457 100.956C360.088 105.888 366.661 109.126 371.132 115.234C373.496 118.464 376.007 122.372 376.394 126.348C376.763 130.129 375.032 133.903 373.365 137.253C369.708 144.6 364.428 151.377 361.869 159.18C359.369 166.804 361.885 174.696 363.581 182.21C364.938 188.221 367.142 196.015 364.92 202.021C362.55 208.423 353.423 211.75 347.479 214.588C341.249 217.561 335.102 220.791 330.833 226.118C325.684 232.546 324.984 240.408 323.373 248.028C322.177 253.681 320.262 259.936 313.9 262.094C308.772 263.832 302.833 263.082 297.54 262.578C291.884 262.039 286.172 261.237 280.484 261.83C273.87 262.519 268.311 265.341 263.391 269.443C258.572 273.459 254.722 278.35 250.16 282.597ZM326.099 303.138C318.956 309.861 307.385 307.535 298.425 306.702C295.066 306.39 291.705 306.421 288.407 306.813C281.987 307.575 275.809 309.706 270.369 313.34C268.27 314.743 266.284 316.294 264.303 317.855C264.292 316.868 264.236 315.873 264.197 314.879C264.045 311.052 263.749 307.234 263.663 303.403C263.576 299.526 263.516 295.634 263.17 291.769C262.909 288.869 262.79 285.683 261.706 282.904C264.871 279.77 268.206 276.767 271.463 274.398C282.726 266.199 297.772 272.954 310.654 271.592C316.059 271.02 321.109 269.211 324.904 265.616C325.097 270.555 325.804 275.554 325.942 280.074C326.094 285.066 326.126 290.058 326.088 295.051C326.068 297.488 325.66 300.479 326.099 303.138ZM373.352 244.817C372.906 250.728 373.546 256.648 367.819 260.449C361.75 264.476 354.573 266.76 348.443 270.726C343.575 273.876 339.061 277.497 335.992 282.295C334.954 283.918 334.189 285.632 333.54 287.384C333.469 285.185 333.38 282.988 333.261 280.791C332.989 275.757 332.518 270.722 331.923 265.713C331.55 262.566 331.35 259.341 330.731 256.211C332.326 251.688 332.969 246.816 333.963 242.129C335.586 234.473 338.91 229.221 346.154 225.208C353.063 221.382 360.616 218.719 366.839 213.849C368.351 212.665 369.6 211.394 370.643 210.058C370.931 211.938 371.223 213.817 371.505 215.697C372.958 225.423 374.094 234.99 373.352 244.817ZM373.564 184.118C372.671 179.911 371.552 175.763 370.745 171.904C369.804 167.408 369.819 163.346 371.571 159.038C373.17 155.111 375.462 151.442 377.546 147.73C378.838 145.427 380.218 143.005 381.45 140.503C382.592 146.483 384.117 152.431 385.138 158.19C386.256 164.491 386.053 170.337 382.139 175.794C379.735 179.146 376.958 181.869 373.564 184.118Z" fill="#4F4F4F"/>
</svg>
