<svg width="166" height="366" viewBox="0 0 166 366" fill="none" xmlns="http://www.w3.org/2000/svg">
<path d="M24.9543 93L145.386 93.81L116.243 342H51.2877L24.9543 93Z" fill="#4F4F4F"/>
<path d="M123.686 357.5C123.686 362.222 119.434 366 114.118 366H54.0517C48.7361 366 44.4836 362.222 44.4836 357.5C44.4836 352.778 48.7361 349 54.0517 349H114.118C119.434 349 123.686 352.778 123.686 357.5Z" fill="#4F4F4F"/>
<path d="M143.14 41.2563C141.03 41.2563 139.095 41.5812 137.161 42.0685C134.875 28.4246 122.214 18.0294 106.739 18.0294C102.167 18.0294 97.947 19.0039 94.0784 20.4658C87.7479 8.28377 74.5593 0 58.9089 0C37.4555 0 20.0466 16.0802 20.0466 35.8963C20.0466 38.6575 20.3983 41.4188 21.1017 44.0176C20.9258 44.0176 20.7501 44.0176 20.7501 44.0176C9.32 44.0176 0 52.6262 0 63.1839C0 73.7417 9.32 82.3503 20.7501 82.3503H138.04C139.799 82.6751 141.381 83 143.316 83C155.801 83 166 73.5792 166 62.0469C165.648 50.5146 155.625 41.2563 143.14 41.2563Z" fill="#4F4F4F"/>
</svg>
