<svg width="368" height="332" viewBox="0 0 368 332" fill="none" xmlns="http://www.w3.org/2000/svg">
<path d="M367.917 239.559C368.337 234.519 367.02 229.445 367.204 224.365C367.455 217.433 367.277 210.67 366.855 203.744C366.658 200.515 366.345 197.322 366.437 194.087C366.502 191.805 366.47 189.471 365.814 187.261C364.51 182.87 361.098 180.524 357.032 179.388C358.51 174.928 357.723 170.313 357.703 165.385C357.687 161.652 359.096 157.406 355.845 154.627C351.972 151.316 346.455 152.901 341.876 152.848C341.51 152.844 341.146 152.845 340.782 152.84C340.376 141.425 340.444 129.981 339.335 118.604C338.395 108.951 336.216 100.314 330.268 92.4776C323.628 83.7282 315.58 75.541 312.579 64.6663C309.717 54.2976 309.342 42.8515 309.581 32.1399C309.658 28.6828 310.145 25.5066 309.586 22.2895C312.192 20.8951 314.154 18.7892 314.871 15.6108C316.25 9.49069 312.158 4.01382 306.638 1.93807C300.815 -0.251964 294.169 0.0146931 288.058 0.292131C280.742 0.624193 271.036 1.01375 267.041 8.276C265.612 10.875 264.778 14.1928 265.793 17.08C266.837 20.052 270.098 21.6742 272.953 22.7193C271.31 32.3937 271.242 42.2305 271.26 52.0321C271.276 61.0337 273.345 72.5035 268.35 80.5485C263.359 88.5884 252.65 93.5507 251.117 103.437C249.265 115.375 248.664 127.581 248.314 139.641C247.97 151.527 247.535 163.411 247.108 175.295C241.016 175.314 234.924 175.339 228.832 175.317C228.615 168.915 228.371 162.513 228.084 156.113C227.523 143.614 227.727 131.067 226.513 118.603C225.573 108.951 223.394 100.313 217.446 92.4769C210.806 83.7275 202.758 75.5402 199.756 64.6655C196.895 54.2969 196.519 42.8508 196.759 32.1392C196.836 28.682 197.323 25.5059 196.764 22.2888C199.37 20.8944 201.332 18.7884 202.048 15.6101C203.428 9.48997 199.336 4.0131 193.816 1.93735C187.993 -0.252682 181.347 0.0139733 175.236 0.291411C167.92 0.623473 158.214 1.01304 154.219 8.27529C152.79 10.8743 151.956 14.192 152.971 17.0793C154.015 20.0513 157.275 21.6735 160.131 22.7186C158.488 32.3929 158.42 42.2298 158.438 52.0314C158.453 61.033 160.523 72.5028 155.528 80.5478C150.536 88.5877 139.828 93.55 138.295 103.436C136.443 115.374 135.842 127.58 135.492 139.64C135.147 151.537 134.712 163.431 134.284 175.326C128.197 175.325 122.111 175.294 116.024 175.283C115.805 168.891 115.548 162.501 115.261 156.113C114.7 143.614 114.904 131.067 113.69 118.603C112.75 108.951 110.571 100.313 104.623 92.4769C97.9828 83.7275 89.935 75.5402 86.9335 64.6655C84.0721 54.2969 83.6962 42.8508 83.9363 32.1392C84.0139 28.682 84.4998 25.5059 83.9413 22.2888C86.5468 20.8944 88.509 18.7884 89.2256 15.6101C90.6049 9.48997 86.513 4.0131 80.993 1.93735C75.1697 -0.252682 68.5241 0.0139733 62.4126 0.291411C55.0972 0.623473 45.3912 1.01304 41.3964 8.27529C39.9668 10.8743 39.133 14.192 40.1479 17.0793C41.1922 20.0513 44.4525 21.6735 47.3088 22.7186C45.6657 32.3929 45.5975 42.2298 45.6154 52.0314C45.6312 61.033 47.7005 72.5028 42.7059 80.5478C37.7142 88.5877 27.0056 93.55 25.4725 103.436C23.621 115.374 23.0194 127.58 22.6701 139.64C22.5443 143.98 22.3941 148.319 22.2481 152.659C18.6767 152.4 14.9794 152.211 12.1547 154.626C8.90456 157.404 10.3126 161.652 10.2975 165.383C10.2766 170.312 9.49106 174.927 10.9681 179.387C6.90212 180.522 3.49021 182.869 2.1864 187.259C1.53018 189.469 1.49784 191.804 1.56252 194.085C1.65452 197.32 1.34187 200.514 1.14493 203.742C0.723025 210.668 0.544775 217.432 0.795618 224.364C0.979618 229.443 -0.337132 234.517 0.083337 239.558C0.5994 245.748 4.21687 248.283 8.80321 249.206C8.73852 250.132 8.74284 251.078 8.73493 252.016C8.72343 253.466 8.7069 254.965 8.99871 256.358C8.78884 256.414 8.57753 256.468 8.37124 256.531C3.72309 257.961 2.44515 262.072 2.15118 266.48C1.82702 271.344 2.29709 276.169 1.89818 281.05C1.29659 288.412 1.35337 295.599 1.89027 302.962C2.27696 308.266 1.75084 314.497 3.23434 319.636C4.77677 324.976 9.06556 326.673 14.2255 326.494C20.884 326.263 27.5144 327.609 34.1578 328.072C74.9153 330.912 116.019 331.384 156.876 331.765C198.32 332.151 239.772 331.654 281.194 330.272C293.62 329.857 306.044 329.363 318.464 328.79C324.263 328.522 330.092 328.379 335.878 327.906C341.848 327.416 347.759 326.285 353.772 326.494C358.932 326.673 363.222 324.976 364.763 319.636C366.248 314.497 365.721 308.267 366.107 302.962C366.644 295.599 366.701 288.412 366.1 281.05C365.701 276.169 366.17 271.344 365.846 266.48C365.552 262.072 364.274 257.961 359.626 256.531C359.42 256.468 359.209 256.414 358.998 256.358C359.29 254.965 359.274 253.466 359.262 252.016C359.255 251.078 359.259 250.132 359.195 249.206C363.783 248.285 367.401 245.75 367.917 239.559ZM349.634 159.939C349.942 159.999 350.25 160.059 350.558 160.119C350.517 160.507 350.421 160.907 350.386 161.266C350.174 163.469 350.198 165.62 350.345 167.829C350.577 171.306 350.979 174.842 351.143 178.344C339.473 176.808 327.363 177.179 315.671 176.731C310.978 176.55 306.284 176.379 301.59 176.213C301.583 174.715 301.437 173.194 301.431 171.749C301.416 168.746 301.38 165.634 301.921 162.669C302.056 161.926 302.206 161.18 302.492 160.487C302.625 160.481 303.016 160.355 303.775 160.343C304.624 160.331 305.479 160.431 306.324 160.499C310.599 160.842 314.797 160.443 319.08 160.351C324.695 160.231 330.327 160.104 335.944 160.125C340.321 160.14 345.314 160.811 349.634 159.939ZM272.81 15.2809C272.788 15.2508 272.766 15.2198 272.745 15.1897C272.677 15.0768 272.623 14.9589 272.587 14.8339C272.288 13.8046 273.816 11.9848 274.451 11.3997C276.072 9.90469 278.519 9.28441 280.609 8.79997C282.878 8.27313 285.181 8.09919 287.49 7.86416C288.363 7.85482 289.203 7.84476 289.981 7.81385C294.311 7.64135 298.861 7.49976 303.067 8.70151C305.474 9.38935 309.416 11.6412 307.645 14.7713C306.302 17.1454 301.345 17.4616 299.002 17.6809C295.827 17.9777 292.626 17.9604 289.44 17.9554C286.31 17.9504 283.154 17.8792 280.043 17.5033C278.511 17.3186 273.974 16.9794 272.81 15.2809ZM301.337 36.9786C298.069 36.1671 293.759 36.9074 290.923 37.0512C287.146 37.2424 282.588 36.9786 278.599 37.7009C278.636 33.1908 278.812 28.6878 279.287 24.2179C282.831 24.7232 286.325 24.808 288.665 24.8432C292.316 24.8978 297.547 25.1494 302.399 24.4436C302.214 25.2033 302.012 25.9673 301.865 26.7594C301.462 28.9322 301.32 31.1416 301.316 33.346C301.314 34.5557 301.323 35.7668 301.337 36.9786ZM274.163 85.7745C279.885 77.5542 279.077 67.5326 278.922 58.0013C278.843 53.0685 278.679 48.0998 278.616 43.1296C282.4 43.5429 286.61 42.7774 290.192 42.633C292.609 42.5352 295.03 42.4655 297.447 42.5216C298.898 42.5554 300.215 42.7832 301.477 42.6567C301.569 45.1314 301.699 47.6053 301.891 50.0699C302.686 60.2697 304.493 70.113 309.793 79.0111C313.363 85.0033 318.283 90.161 322.448 95.7666C320.631 96.6348 319.469 98.5683 318.201 100.271C316.043 103.17 313.829 106.048 311.08 108.421C305.417 113.311 296.851 116.45 289.367 116.098C277.674 115.548 267.662 108.463 262.654 98.2269C266.671 94.245 270.913 90.4421 274.163 85.7745ZM255.644 151.568C255.828 138.179 255.995 124.723 257.614 111.414C257.988 108.338 258.164 105.708 259.093 103.283C262.693 114.083 278.116 120.98 288.056 122.007C296.199 122.848 305.137 120.017 311.942 115.613C315.548 113.28 318.5 110.275 321.154 106.924C322.585 105.118 324.682 103.027 325.795 100.744C326.306 101.603 326.798 102.474 327.245 103.371C331.687 112.249 331.439 123.449 331.76 133.115C331.978 139.669 332.218 146.225 332.453 152.781C328.448 152.766 324.443 152.767 320.432 152.797C317.074 152.821 313.719 153.144 310.364 153.155C308.158 153.162 305.978 152.732 303.772 152.719C299.833 152.696 296.831 154.039 295.333 157.793C295.294 157.89 295.266 157.992 295.229 158.089C293.937 158.069 292.644 158.045 291.352 158.011C283.838 157.816 276.351 157.258 268.846 156.908C265.159 156.737 261.424 156.697 257.739 156.944C257.049 156.99 256.299 157.046 255.541 157.14C255.578 155.283 255.619 153.425 255.644 151.568ZM255.414 163.198C256.631 163.224 257.845 163.163 258.904 163.173C262.436 163.208 265.963 163.466 269.489 163.66C277.523 164.104 285.537 164.684 293.584 164.889C293.681 164.892 293.778 164.892 293.875 164.895C293.77 166.182 293.711 167.465 293.657 168.709C293.565 170.882 293.297 173.485 293.41 175.935C285.845 175.696 278.281 175.499 270.714 175.38C265.498 175.299 260.283 175.278 255.068 175.28C255.195 171.253 255.316 167.226 255.414 163.198ZM159.987 15.2809C159.965 15.2508 159.943 15.2198 159.922 15.1897C159.855 15.0768 159.8 14.9589 159.764 14.8339C159.465 13.8046 160.993 11.9848 161.628 11.3997C163.249 9.90469 165.696 9.28441 167.785 8.79997C170.055 8.27313 172.358 8.09919 174.666 7.86416C175.54 7.85482 176.38 7.84476 177.157 7.81385C181.487 7.64135 186.037 7.49976 190.244 8.70151C192.651 9.38935 196.592 11.6412 194.821 14.7713C193.478 17.1454 188.522 17.4616 186.179 17.6809C183.004 17.9777 179.803 17.9604 176.617 17.9554C173.487 17.9504 170.331 17.8792 167.22 17.5033C165.688 17.3186 161.151 16.9794 159.987 15.2809ZM188.514 36.9786C185.246 36.1671 180.936 36.9074 178.1 37.0512C174.323 37.2424 169.765 36.9786 165.776 37.7009C165.813 33.1908 165.989 28.6878 166.464 24.2179C170.008 24.7232 173.502 24.808 175.842 24.8432C179.493 24.8978 184.724 25.1494 189.576 24.4436C189.391 25.2033 189.189 25.9673 189.042 26.7594C188.639 28.9322 188.497 31.1416 188.493 33.346C188.491 34.5557 188.5 35.7668 188.514 36.9786ZM161.34 85.7745C167.062 77.5542 166.254 67.5326 166.1 58.0013C166.02 53.0685 165.857 48.0998 165.793 43.1296C169.578 43.5429 173.787 42.7774 177.369 42.633C179.786 42.5352 182.207 42.4655 184.625 42.5216C186.075 42.5554 187.392 42.7832 188.655 42.6567C188.747 45.1314 188.876 47.6053 189.068 50.0699C189.864 60.2697 191.67 70.113 196.971 79.0111C200.54 85.0033 205.46 90.161 209.626 95.7666C207.809 96.6348 206.646 98.5683 205.378 100.271C203.22 103.17 201.006 106.048 198.257 108.421C192.594 113.311 184.028 116.45 176.544 116.098C164.851 115.548 154.839 108.463 149.831 98.2269C153.848 94.245 158.09 90.4421 161.34 85.7745ZM142.821 151.568C143.005 138.179 143.172 124.723 144.791 111.414C145.165 108.338 145.341 105.708 146.271 103.283C149.87 114.083 165.294 120.98 175.234 122.007C183.377 122.848 192.315 120.017 199.12 115.613C202.726 113.28 205.678 110.275 208.332 106.924C209.763 105.118 211.859 103.027 212.973 100.744C213.484 101.603 213.975 102.474 214.424 103.371C218.865 112.249 218.617 123.449 218.938 133.115C219.214 141.42 219.524 149.727 219.818 158.037C214.73 157.742 209.487 158.054 204.476 158.111C195.828 158.209 187.178 158.235 178.531 158.012C171.017 157.817 163.531 157.259 156.025 156.909C152.338 156.737 148.604 156.698 144.919 156.944C144.228 156.99 143.478 157.046 142.719 157.141C142.755 155.283 142.796 153.425 142.821 151.568ZM142.591 163.198C143.808 163.224 145.022 163.163 146.081 163.173C149.614 163.208 153.14 163.466 156.666 163.66C164.7 164.104 172.714 164.684 180.761 164.889C189.403 165.11 198.046 165.081 206.689 165.026C210.74 165 215.763 165.855 220.059 165.009C220.175 168.444 220.269 171.881 220.369 175.317C209.172 175.39 198.012 175.79 186.768 175.877C184.733 175.893 182.699 175.909 180.664 175.924C167.76 176.024 155.146 175.263 142.245 175.311C142.372 171.274 142.492 167.237 142.591 163.198ZM107.558 175.288C104.135 175.301 100.711 175.326 97.2871 175.38C89.7194 175.498 82.1545 175.695 74.5904 175.935C74.7025 173.485 74.4359 170.882 74.3424 168.709C74.2907 167.498 74.2325 166.249 74.1326 164.997C80.7098 165.086 87.2878 165.068 93.8658 165.027C97.9167 165.001 102.939 165.856 107.235 165.01C107.351 168.435 107.457 171.862 107.558 175.288ZM47.1651 15.2809C47.1428 15.2508 47.1205 15.2198 47.0996 15.1897C47.0328 15.0768 46.9782 14.9589 46.9415 14.8339C46.6432 13.8046 48.1706 11.9848 48.806 11.3997C50.4267 9.90469 52.8741 9.28441 54.9635 8.79997C57.234 8.27313 59.5362 8.09919 61.8448 7.86416C62.7181 7.85482 63.5583 7.84476 64.336 7.81385C68.6657 7.64135 73.2154 7.49976 77.4223 8.70151C79.8294 9.38935 83.771 11.6412 82 14.7713C80.6566 17.1454 75.7001 17.4616 73.3577 17.6809C70.1823 17.9777 66.9817 17.9604 63.7955 17.9554C60.6653 17.9504 57.51 17.8792 54.3986 17.5033C52.8655 17.3186 48.3287 16.9794 47.1651 15.2809ZM75.6922 36.9786C72.4241 36.1671 68.1137 36.9074 65.2776 37.0512C61.5012 37.2424 56.9429 36.9786 52.9539 37.7009C52.9905 33.1908 53.1666 28.6878 53.6417 24.2179C57.1859 24.7232 60.6797 24.808 63.02 24.8432C66.6705 24.8978 71.9016 25.1494 76.7538 24.4436C76.5691 25.2033 76.3671 25.9673 76.2198 26.7594C75.8173 28.9322 75.675 31.1416 75.6707 33.346C75.6685 34.5557 75.6779 35.7668 75.6922 36.9786ZM48.517 85.7745C54.239 77.5542 53.4311 67.5326 53.2766 58.0013C53.1968 53.0685 53.0336 48.0998 52.9704 43.1296C56.7546 43.5429 60.9643 42.7774 64.5466 42.633C66.963 42.5352 69.3838 42.4655 71.8017 42.5216C73.2521 42.5554 74.5688 42.7832 75.8317 42.6567C75.9237 45.1314 76.0531 47.6053 76.245 50.0699C77.0406 60.2697 78.8475 70.113 84.1476 79.0111C87.7169 85.0033 92.6375 90.161 96.8027 95.7666C94.9857 96.6348 93.8234 98.5683 92.5556 100.271C90.3971 103.17 88.1834 106.048 85.4342 108.421C79.7711 113.311 71.2051 116.45 63.7207 116.098C52.0281 115.548 42.0159 108.463 37.0084 98.2269C41.0262 94.245 45.2683 90.4421 48.517 85.7745ZM29.9977 151.569C30.1824 138.179 30.3499 124.723 31.9685 111.414C32.343 108.338 32.5191 105.708 33.4484 103.283C37.0479 114.083 52.4716 120.98 62.4119 122.007C70.5546 122.848 79.493 120.017 86.2981 115.613C89.9034 113.28 92.856 110.275 95.5096 106.924C96.9407 105.118 99.0372 103.027 100.151 100.744C100.662 101.603 101.153 102.474 101.602 103.371C106.043 112.249 105.795 123.449 106.116 133.115C106.392 141.42 106.702 149.727 106.996 158.037C101.908 157.742 96.6646 158.054 91.6542 158.111C85.3652 158.182 79.0747 158.213 72.7856 158.14C72.7432 158.025 72.7094 157.907 72.6641 157.794C71.1656 154.039 68.1648 152.697 64.2246 152.72C62.0195 152.733 59.8395 153.163 57.6329 153.156C54.2792 153.145 50.9227 152.822 47.5647 152.797C41.6954 152.754 35.8376 152.772 29.9747 152.821C29.9819 152.403 29.992 151.986 29.9977 151.569ZM17.6129 161.266C17.5784 160.907 17.4821 160.507 17.4411 160.119C17.7495 160.059 18.0571 159.999 18.3655 159.939C22.6852 160.811 27.6783 160.14 32.0562 160.124C37.6732 160.103 43.3054 160.231 48.921 160.351C53.204 160.443 57.4015 160.841 61.6766 160.498C62.5211 160.43 63.3765 160.33 64.2253 160.343C64.7737 160.351 65.1237 160.418 65.3293 160.458C65.3976 160.489 65.4651 160.52 65.532 160.553C65.8015 161.227 65.9489 161.95 66.0797 162.669C66.6202 165.635 66.5842 168.746 66.5699 171.749C66.5627 173.195 66.4168 174.715 66.411 176.213C61.7169 176.379 57.0227 176.551 52.3286 176.731C40.6374 177.179 28.5271 176.808 16.8568 178.344C17.0207 174.842 17.4225 171.306 17.6546 167.829C17.8012 165.62 17.8264 163.469 17.6129 161.266ZM358.638 293.084C358.43 299.25 357.452 305.366 357.208 311.525C357.147 313.065 357.621 316.375 356.576 317.613C355.755 318.586 353.278 317.906 351.888 317.884C345.438 317.779 338.855 319.225 332.407 319.646C291.782 322.293 250.867 322.694 210.167 323.031C169.099 323.372 128.042 322.831 86.9888 321.753C76.3219 321.473 65.6657 320.941 55.0016 320.607C48.5307 320.326 42.0569 320.067 35.5932 319.646C29.1446 319.225 22.5608 317.78 16.1122 317.884C14.7221 317.906 12.2453 318.587 11.4238 317.613C10.3787 316.375 10.8531 313.065 10.792 311.525C10.5483 305.366 9.57012 299.251 9.3624 293.084C9.15396 286.904 10.1566 280.787 10.0926 274.629C10.0689 272.363 8.89018 265.534 10.5009 264.088C11.3016 263.368 14.7616 263.756 16.0173 263.767C19.003 263.795 21.9829 263.605 24.9657 263.48C31.6832 263.197 38.3992 262.884 45.1145 262.558C59.0395 261.883 72.9639 261.182 86.8968 260.704C102.591 260.166 118.276 260.181 133.976 260.038C141.067 259.973 148.165 259.813 155.251 260.168C162.31 260.522 169.351 261.126 176.421 261.285C185.764 261.495 195.146 261.3 204.482 261.135C209.451 261.047 214.394 260.503 219.348 260.166C224.252 259.833 229.14 259.993 234.024 260.038C249.723 260.181 265.409 260.166 281.103 260.704C295.036 261.182 308.961 261.883 322.885 262.558C329.601 262.884 336.317 263.197 343.034 263.48C346.017 263.605 348.997 263.795 351.983 263.767C353.238 263.756 356.698 263.368 357.499 264.088C359.109 265.535 357.931 272.363 357.907 274.629C357.843 280.787 358.846 286.904 358.638 293.084ZM17.0947 251.56C17.0724 250.924 17.0552 250.262 17.0099 249.599C17.7488 249.563 18.4783 249.516 19.2014 249.466C19.1259 251.267 19.0562 253.069 18.9656 254.869C18.9527 255.121 18.9448 255.372 18.9326 255.624C18.3396 255.613 17.743 255.604 17.1465 255.6C17.2572 254.252 17.14 252.848 17.0947 251.56ZM64.2526 251.077C64.336 251.985 64.5164 252.979 64.8729 253.886C58.7923 254.138 52.7124 254.406 46.6325 254.681C40.0839 254.978 33.5347 255.259 26.9847 255.522C27.0638 253.332 27.1436 251.141 27.2205 248.95C39.5528 248.225 51.9124 247.777 64.2612 247.463C64.1232 248.666 64.1441 249.898 64.2526 251.077ZM72.2128 247.288C83.9111 247.051 95.6117 246.954 107.312 246.93C107.264 248.86 107.235 250.789 107.229 252.716C102.479 252.756 97.7291 252.816 92.9789 252.928C86.0624 253.092 79.148 253.327 72.2343 253.591C72.3572 253.211 72.4492 252.803 72.5075 252.359C72.703 250.863 72.5571 249.052 72.2128 247.288ZM115.933 252.665C115.96 250.752 115.994 248.837 116.036 246.923C116.34 246.923 116.646 246.922 116.951 246.922C121.983 246.927 127.049 246.986 132.127 247.021C132.052 248.923 131.97 250.825 131.881 252.726C126.565 252.687 121.249 252.659 115.933 252.665ZM139.905 252.789C139.974 250.874 140.042 248.96 140.108 247.046C147.541 247.028 154.973 246.869 162.334 246.315C166.728 246.403 171.121 246.542 175.517 246.713C186.099 247.127 196.683 247.503 207.274 247.443C211.544 247.419 215.855 247.628 220.109 247.476C220.068 249.271 220.049 251.065 220.044 252.859C215.814 252.89 211.584 252.908 207.354 252.877C197.962 252.808 188.525 253.652 179.11 253.761C172.902 253.833 166.859 252.832 160.646 252.877C153.731 252.928 146.819 252.854 139.905 252.789ZM228.761 252.782C228.786 250.87 228.81 248.955 228.849 247.042C234.23 247.046 239.607 246.989 244.958 246.951C244.885 248.862 244.796 250.771 244.708 252.682C239.632 252.699 234.556 252.729 229.48 252.775C229.24 252.778 229.001 252.78 228.761 252.782ZM295.492 252.359C295.551 252.803 295.643 253.211 295.766 253.591C288.852 253.327 281.938 253.092 275.021 252.928C267.593 252.752 260.164 252.681 252.735 252.668C252.804 250.754 252.87 248.839 252.936 246.924C267.22 246.917 281.506 246.999 295.786 247.288C295.442 249.052 295.296 250.863 295.492 252.359ZM303.739 247.462C317.48 247.812 331.237 248.307 344.954 249.19C346.823 249.311 348.888 249.497 350.99 249.599C350.945 250.262 350.927 250.923 350.905 251.56C350.861 252.848 350.743 254.252 350.853 255.6C348.419 255.615 345.993 255.722 343.766 255.635C336.299 255.342 328.833 255.019 321.368 254.681C315.288 254.405 309.208 254.137 303.128 253.885C303.484 252.979 303.665 251.985 303.748 251.076C303.856 249.898 303.877 248.666 303.739 247.462ZM357.812 241.741C353.437 242.812 347.942 241.446 343.507 241.173C337.002 240.772 330.489 240.509 323.977 240.227C310.319 239.634 296.653 239.288 282.983 239.118C269.05 238.945 255.097 238.789 241.164 239.016C229.268 239.209 217.246 238.978 205.359 239.864C195.167 239.46 184.967 239.151 174.761 238.873C164.858 238.604 154.975 238.53 145.075 238.978C143.549 239.047 142.001 239.093 140.443 239.139C135.899 239.103 131.358 239.09 126.835 239.016C112.903 238.789 98.9488 238.946 85.0166 239.118C71.3467 239.288 57.6804 239.635 44.022 240.227C37.5108 240.509 30.9975 240.772 24.4921 241.173C20.0574 241.446 14.5618 242.812 10.1868 241.741C6.04465 240.727 7.95365 234.343 8.26199 231.222C8.82406 225.525 7.90046 219.821 8.08949 214.114C8.29506 207.897 9.07059 201.734 9.43787 195.533C9.54568 193.714 9.3394 191.153 10.194 189.468C11.1506 187.581 13.5268 187.266 15.4401 186.919C27.449 184.749 40.1731 185.181 52.3271 184.612C66.0387 183.97 79.7525 183.333 93.4734 182.919C108.778 182.457 124.086 182.507 139.395 182.242C155.202 181.969 171.01 182.374 186.809 182.85C200.835 183.272 214.623 182.001 228.603 182.242C243.911 182.507 259.219 182.457 274.524 182.919C288.245 183.333 301.959 183.97 315.671 184.612C327.825 185.181 340.549 184.749 352.558 186.919C354.472 187.265 356.848 187.581 357.805 189.468C358.659 191.153 358.453 193.714 358.561 195.533C358.929 201.734 359.703 207.898 359.909 214.114C360.097 219.821 359.174 225.525 359.736 231.222C360.045 234.343 361.955 240.727 357.812 241.741Z" fill="#4F4F4F"/>
</svg>
