<svg width="323" height="314" viewBox="0 0 323 314" fill="none" xmlns="http://www.w3.org/2000/svg">
<path fill-rule="evenodd" clip-rule="evenodd" d="M128.956 188.915C140.203 189.811 154.168 190.763 170.697 189.107C173.568 191.826 175.836 195.863 178.104 199.9C178.86 201.246 179.238 201.919 179.014 203.909L179.167 206.572L179.923 207.918C180.384 215.908 176.933 238.449 174.073 247.701C172.643 252.327 171.213 256.953 168.803 262.223L166.393 267.494C144.949 260.404 131.647 241.509 124.831 217.428C123.544 212.746 117.895 226.596 114.044 224.522C110.192 222.447 116.597 209.943 114.411 213.223C90.5907 247.317 115.141 267.107 166.771 268.167L165.565 270.803L162.47 270.074C150.242 269.823 139.975 268.282 132.047 266.124L128.574 264.723L127.215 264.695L124.12 263.966L122.383 263.266L118.532 261.191C111.207 257.716 106.221 253.623 103.575 248.914C101.307 244.877 99.4164 241.513 98.5069 237.504C102.501 230.27 106.494 223.037 109.129 215.775L110.937 211.822L112.745 207.869C113.572 204.561 115.758 201.28 116.585 197.972C117.566 197.327 118.546 196.682 120.508 195.392C122.694 192.112 126.014 190.85 128.956 188.915ZM88.985 225.337C97.7997 207.562 103.223 195.703 103.897 189.731C103.897 189.731 102.16 189.03 98.3086 186.956C98.769 194.946 95.4603 208.179 88.985 225.337ZM244.773 220.555C245.316 235.862 240.424 251.058 230.097 266.142C238.309 249.685 239.503 235.078 234.506 219.014C240.697 220.472 244.773 220.555 244.773 220.555ZM262.582 135.13C268.784 148.558 267.519 167.819 260.37 190.948C264.046 166.417 261.991 148.419 255.789 134.991C260.243 135.747 262.582 135.13 262.582 135.13ZM164.588 194.967C164.588 194.967 162.249 195.584 158.551 196.173C165.663 213.611 168.095 232.282 166.228 252.86C173.377 229.73 173.283 210.442 164.588 194.967ZM174.822 160.595C186.791 126.924 180.885 106.851 155.897 103.013C188.955 99.7011 196.444 117.811 174.822 160.595ZM298.833 75.355C291.661 74.5427 284.112 73.0576 277.543 70.9276C278.452 74.9365 278.759 80.2632 279.066 85.5899C287.596 86.43 298.088 85.9805 309.56 84.8859C307.056 70.8686 303.346 59.4867 296.471 52.03C288.461 42.5549 278.265 36.3602 267.998 34.8193C257.731 33.2784 247.24 33.7281 239.619 36.8969C236.299 38.1588 234.338 39.4486 231.396 41.3833L229.435 42.6732L230.793 42.7011C238.568 42.1957 247.098 43.0358 252.686 45.8107C253.36 39.8391 261.665 42.6697 271.861 48.8644C284.396 54.4421 275.57 60.2464 298.833 75.355ZM302.834 156.573C284.699 136.249 294.281 131.79 286.649 122.988C282.266 117.578 277.659 114.158 274.563 113.429C275.993 108.803 276.82 105.495 277.269 101.514C283.685 100.981 289.876 102.438 295.086 104.54C300.674 107.315 306.038 112.08 308.837 119.453C312.771 128.845 312.936 143.479 307.595 162.656C298.084 162.461 288.573 162.265 281.402 161.453C282.075 155.482 282.146 150.828 281.237 146.819C287.203 150.267 295.509 153.097 302.834 156.573ZM265.296 211.666C266.359 218.338 268.178 226.356 271.355 234.402C268.473 219.712 287.106 207.458 283.681 177.461C284.059 178.134 285.418 178.162 285.796 178.835C289.647 180.909 291.915 184.946 294.184 188.982C295.471 193.664 295.4 198.318 294.726 204.29C292.245 214.214 285.463 226.046 271.663 239.729C266.074 236.954 261.845 234.207 257.615 231.46C258.667 226.161 259.719 220.862 259.79 216.208C262.129 215.591 264.09 214.301 265.296 211.666ZM201.007 73.3467C205.839 74.776 210.507 61.5708 211.794 66.2526C220.572 89.0444 236.213 107.322 257.881 112.422C236.898 113.321 219.838 111.641 208.662 106.091C208.815 108.754 208.968 111.418 208.744 113.408C208.519 115.399 208.673 118.062 208.448 120.053C211.544 120.781 214.639 121.51 218.715 121.593C221.432 121.649 223.169 122.35 225.887 122.406L232.68 122.545L236.756 122.629L240.832 122.713L242.191 122.741L246.267 122.824C251.324 122.263 256.758 122.375 262.193 122.486L263.174 121.841L264.603 117.215C265.655 111.917 267.085 107.29 268.515 102.664L268.964 98.6836L269.413 94.7024L270.016 93.3847L270.087 88.7309L270.158 84.077C269.851 78.7503 268.185 73.3957 266.898 68.714C264.098 61.341 258.356 55.9027 251.41 53.0999C245.443 49.6522 236.913 48.812 229.139 49.3175C227.78 49.2896 225.441 49.9066 224.083 49.8787C222.724 49.8508 220.385 50.4677 219.404 51.1126C218.045 51.0848 216.084 52.3748 214.725 52.3469C210.046 53.5809 205.746 55.4876 201.823 58.0673L200.843 58.7122L199.862 59.3572C191.639 63.8436 185.53 69.7037 181.158 76.2644C180.556 77.5821 179.953 78.8998 179.351 80.2175C184.785 80.3291 190.598 81.1135 194.45 83.1877C194.745 76.5433 197.38 69.2819 202.355 61.4035C202.201 58.7402 197.156 71.2725 201.007 73.3467ZM205.315 159.891C201.464 157.817 207.868 145.312 205.682 148.593C181.862 182.686 206.412 202.476 258.042 203.536C236.599 196.446 223.296 177.551 216.481 153.47C215.193 148.788 209.167 161.965 205.315 159.891ZM37.5307 250.883C29.4497 246.062 21.9715 239.922 17.8131 232.522C18.1912 233.194 18.1912 233.194 18.5692 233.867C22.503 243.259 29.1541 252.706 39.5033 261.564C45.0803 252.368 49.2987 243.144 52.9143 235.237C45.2114 231.089 39.8477 226.324 35.4647 220.913C29.9476 213.484 27.7505 204.794 28.2708 196.159C28.7911 187.524 31.6508 178.272 36.2471 169.721L36.8498 168.403C34.8886 169.693 32.9271 170.983 30.3632 173.59C24.2547 179.45 18.6776 188.646 15.5934 199.889C14.9908 201.207 15.3691 201.879 14.7664 203.197C17.933 199.272 23.6746 204.71 27.9865 214.774C35.2402 222.904 25.2801 226.69 37.5307 250.883ZM59.1912 167.532C55.9424 164.14 66.8008 152.392 63.2562 155.644C30.3746 185.561 43.9125 214.436 86.1963 229.935C70.4835 216.312 67.3657 191.641 70.5098 163.774C71.5616 158.475 62.4401 170.924 59.1912 167.532ZM136.737 276.861C133.642 276.133 130.546 275.404 127.451 274.675C126.624 277.984 126.777 280.647 127.309 283.983C127.238 288.637 129.506 292.674 131.774 296.711C135.023 300.103 138.874 302.177 144.085 304.279C153.371 306.465 166.202 305.398 183.782 298.443C184.456 292.472 184.149 287.145 184.22 282.491C179.01 280.389 174.178 278.96 170.326 276.886C168.743 278.848 166.404 279.465 165.045 279.437C156.893 279.27 150.1 279.131 143.909 277.673C149.13 291.747 158.723 299.259 175.027 299.594C136.913 303.467 124.603 295.898 136.737 276.861ZM178.16 259.755C176.955 262.391 176.73 264.381 175.525 267.017L175.903 267.69C178.018 269.063 181.491 270.465 183.606 271.838C185.343 272.539 187.08 273.239 188.816 273.94L193.648 275.369C203.313 278.228 215.919 279.152 231.467 278.141C239.076 263.001 244.724 249.151 246.828 238.554L247.88 233.255C248.104 231.264 248.329 229.274 248.554 227.283C249.381 223.975 248.849 220.639 248.696 217.976C245.6 217.247 241.902 217.836 238.807 217.107L231.636 216.295L225.445 214.838C208.987 211.84 197.208 207.608 189.352 200.796L188.596 199.45L187.615 200.095C225.231 228.8 193.472 248.764 223.232 270.657C207.082 272.985 186.395 267.24 178.16 259.755ZM167.212 175.735C149.242 170.045 142.131 152.608 136.603 133.208C135.693 129.2 128.297 130.378 133.271 122.5C138.848 113.303 119.531 119.557 110.032 131.333C97.7436 147.707 99.6561 175.013 167.212 175.735ZM100.217 290.742C80.5107 284.352 65.3296 274.065 67.4219 251.496C67.9422 242.862 77.0038 247.038 85.0137 256.513C92.6455 265.315 82.4608 271.092 100.217 290.742ZM134.207 73.9704C127.32 54.5426 115.376 35.6762 96.4148 18.6607C74.2267 22.1955 59.6705 34.5324 52.1435 56.9894C85.5079 59.0045 105.675 73.3845 111.806 91.4666C103.878 89.3088 94.7454 89.7863 82.3751 98.8429C58.4615 113.648 17.8282 168.012 12.3 148.613C10.2563 142.585 -2.34991 141.661 0.756703 154.361C3.86332 167.061 14.8861 169.947 29.9027 165.6C28.9221 166.245 27.9415 166.89 27.3389 168.208C19.6472 176.03 12.4869 187.189 9.17809 200.422C5.49129 212.982 6.25855 226.299 11.1019 239.699C15.1892 251.754 23.9551 262.575 37.7778 272.834C38.1558 273.507 38.1559 273.507 39.1365 272.862C41.8539 272.918 43.8152 271.628 45.3985 269.665C48.7896 263.75 52.1807 257.834 55.5718 251.918C54.7446 255.226 53.9174 258.535 54.0709 261.198C53.5506 269.833 55.3697 277.851 60.8867 285.28C67.9159 295.4 81.963 303.669 104.233 307.451C106.951 307.507 109.893 305.572 111.098 302.937C113.509 297.666 115.919 292.395 118.329 287.124L118.105 289.114C118.412 294.441 120.077 299.796 123.704 303.86C127.331 307.925 131.939 311.345 139.488 312.83C151.492 315.072 168.02 313.416 189.902 304.555C192.241 303.938 194.805 301.33 194.652 298.667C194.723 294.013 194.794 289.359 194.865 284.705C205.132 286.246 217.738 287.17 232.305 286.804C235.023 286.86 236.984 285.57 238.189 282.934C245.799 267.795 251.825 254.617 254.909 243.375C258.76 245.449 262.99 248.196 268.2 250.298C269.937 250.999 272.276 250.382 275.218 248.447C293.544 230.867 302.512 215.755 305.218 203.84C307.475 195.906 306.79 189.906 305.124 184.552C303.459 179.197 299.832 175.133 295.602 172.386L293.866 171.685C299.3 171.796 304.735 171.908 310.17 172.019C312.887 172.075 315.829 170.14 317.034 167.505C324.183 144.375 324.243 127.75 318.797 115.668C315.241 106.949 309.5 101.511 302.175 98.0352C300.06 96.6617 296.965 95.9332 293.869 95.2046C300.285 94.6712 306.7 94.1379 313.115 93.6046C315.833 93.6604 318.397 91.0528 318.621 89.0623L319.224 87.7445C317.169 69.7461 312.326 56.3457 304.316 46.8706C295.55 36.0499 283.996 29.8273 272.973 26.9408C260.969 24.6992 248.138 25.7659 238.178 29.5517C237.198 30.1966 234.858 30.8136 233.878 31.4585C241.416 20.9726 242.539 11.0201 234.304 3.53551C225.692 -4.62186 220.647 7.91024 224.273 11.975C236.666 26.8604 174.331 40.2118 151.174 56.3625C141.592 60.8211 137.22 67.3818 134.207 73.9704ZM92.6117 229.402C95.0221 224.131 97.8108 219.533 100.221 214.262L102.029 210.309L103.837 206.356L105.042 203.721C106.247 201.085 107.074 197.777 108.28 195.141C109.107 191.833 110.312 189.198 111.139 185.889C106.307 184.46 101.097 182.358 98.2261 179.639C89.3891 173.472 85.231 166.071 84.3925 157.408C84.3102 150.091 85.9644 143.475 89.9582 136.241L88.5994 136.213C81.2034 137.392 73.5827 140.56 66.1156 146.392C62.193 148.972 58.6486 152.224 55.4821 156.15C54.8795 157.467 52.9182 158.757 52.3156 160.075C51.713 161.393 50.1295 163.355 49.1489 164C47.5656 165.963 46.3603 168.598 45.7577 169.916C41.764 177.15 39.507 185.084 38.6087 193.046C37.7104 201.008 40.1321 207.708 44.2905 215.109C46.9367 219.819 51.5443 223.239 57.1325 226.014L60.9841 228.088L64.8357 230.162L65.2137 230.835L68.6869 232.236L72.1605 233.637C76.9926 235.067 81.8248 236.496 87.2595 236.608L88.9963 237.308L92.6117 229.402ZM66.808 240.843C64.3975 246.114 62.3651 252.058 62.672 257.384C62.3763 264.029 63.8174 271.374 68.5784 277.457C74.4735 285.559 86.4059 292.454 104.6 296.153C108.819 286.929 113.037 277.705 115.672 270.443C105.63 266.912 98.5293 261.446 94.749 254.718C92.8588 251.354 90.9686 247.99 90.4371 244.653C80.5483 243.785 73.3768 242.973 66.808 240.843ZM174.915 179.883L175.518 178.566L178.909 172.65C186.294 159.5 191.115 148.959 194.955 139.062C196.385 134.436 197.814 129.81 198.264 125.829L199.315 120.53C199.54 118.54 200.143 117.222 199.387 115.876L199.989 114.558C200.734 103.933 196.954 97.2051 191.59 92.4396C187.36 89.6926 182.15 87.5905 175.357 87.451C173.998 87.4231 172.64 87.3951 171.281 87.3672L169.922 87.3395L167.205 87.2838C157.091 88.4062 145.17 93.4818 134.986 99.2581C123.82 105.679 113.187 115.437 106.251 124.605C105.649 125.923 104.668 126.568 103.085 128.53C102.482 129.848 100.899 131.811 100.296 133.128C96.905 139.044 95.2505 145.661 95.5574 150.987C95.6398 158.304 99.0422 164.36 107.123 169.181C109.238 170.554 112.711 171.956 114.826 173.329L119.658 174.758L124.112 175.515C127.208 176.244 129.925 176.299 133.021 177.028C135.738 177.084 138.833 177.812 141.551 177.868C149.703 178.036 159.214 178.231 169.705 177.781L174.915 179.883ZM194.775 188.937C207.168 203.822 233.892 208.361 257.971 208.19C270.023 181.836 280.256 147.464 264.012 130.504L234.877 131.236L217.214 130.873C212.311 134.098 207.408 137.322 203.261 141.893C200.023 150.472 195.202 161.013 189.4 172.2C188.726 178.172 190.392 183.526 194.775 188.937Z" fill="#4f4f4f"/>
</svg>
