<svg width="179" height="125" viewBox="0 0 179 125" fill="none" xmlns="http://www.w3.org/2000/svg">
<path d="M172.161 6.10352e-05C172.444 3.55032 175.135 14.6224 170.606 24.6474C163.94 39.2016 138.75 42.0455 121.013 42.0455C116.754 42.0455 111.154 38.328 101.888 38.328C97.5783 38.328 94.1456 39.6105 89.5193 39.6415C84.893 39.6725 81.4604 38.328 77.1502 38.328C67.8847 38.328 62.3099 42.0455 58.0256 42.0455C40.2817 42.0455 15.0919 39.2016 8.43312 24.6474C3.9165 14.6224 6.59421 3.5813 6.87811 6.10352e-05C2.63249 7.54669 0.0257568 15.7872 0.0257568 23.4082C0.0257568 33.9412 11.4657 52.0395 35.9522 56.8661C46.2759 59.171 52.825 65.3793 52.825 68.6384C57.6255 69.8775 57.5094 65.0695 57.5094 68.8552C57.5094 81.4205 68.9881 82.573 68.9881 91.7181C68.9881 101.935 67.6137 100.207 67.6137 106.632C67.6137 113.057 70.8979 116.26 73.124 116.26C73.124 116.26 72.04 124.823 89.3515 124.934H89.6935C107.012 124.823 105.921 116.26 105.921 116.26C108.154 116.26 111.431 113.057 111.431 106.632C111.431 100.207 110.057 101.935 110.057 91.7181C110.057 82.573 121.536 81.4205 121.536 68.8552C121.536 65.0633 121.42 69.8589 126.22 68.6384C126.22 65.3979 132.801 59.1896 143.093 56.8661C167.573 52.0333 179.019 33.9041 179.019 23.4082C179 15.7872 176.387 7.54669 172.161 6.10352e-05ZM83.3122 107.704C81.1571 108.899 78.8536 108.943 78.1503 107.803C77.447 106.663 78.6601 104.767 80.8151 103.571C82.9702 102.375 85.2737 102.332 85.977 103.472C86.6803 104.612 85.4543 106.508 83.2993 107.704H83.3122ZM100.862 107.803C100.179 108.943 97.875 108.899 95.7006 107.704C93.5262 106.508 92.3519 104.606 93.0358 103.472C93.7198 102.338 96.0232 102.375 98.1977 103.571C100.372 104.767 101.533 106.663 100.843 107.803H100.862Z" fill="#000000"/>
</svg>
